<svg xmlns="http://www.w3.org/2000/svg" viewBox="0 0 22.798 21.849"><g transform="translate(-732.999 -511.668)"><path d="M9460.325,729.562h-1.844V718.974a.682.682,0,0,0-1.363,0v10.587h-1.842a.679.679,0,0,0-.684.675v4.99a.678.678,0,0,0,.684.674h1.842v3.574a.682.682,0,0,0,1.363,0V735.9h1.844a.677.677,0,0,0,.682-.674v-4.99A.678.678,0,0,0,9460.325,729.562Zm-.684,4.991h-3.686V730.91h3.686Zm-7.507-12h-1.842v-3.575a.682.682,0,0,0-1.363,0v3.575h-1.846a.678.678,0,0,0-.683.673v4.991a.678.678,0,0,0,.683.674h1.846v10.587a.682.682,0,0,0,1.363,0V728.888h1.842a.679.679,0,0,0,.684-.674v-4.991A.679.679,0,0,0,9452.135,722.549Zm-.68,4.99h-3.688V723.9h3.688Zm17.061-4.99h-1.842v-3.575a.683.683,0,0,0-1.366,0v3.575h-1.843a.678.678,0,0,0-.683.673v4.991a.677.677,0,0,0,.683.674h1.843v10.587a.683.683,0,0,0,1.366,0V728.888h1.842a.679.679,0,0,0,.684-.674v-4.991A.679.679,0,0,0,9468.516,722.549Zm-.683,4.99h-3.685V723.9h3.685Z" transform="translate(-8713.401 -206.631)"/></g></svg>