<svg xmlns="http://www.w3.org/2000/svg" viewBox="0 0 26 20"><g transform="translate(0 0)"><rect width="25.333" height="4.762" rx="2"/><rect width="25.333" height="4.762" rx="2" transform="translate(0 7.619)"/><rect width="25.333" height="4.762" rx="2" transform="translate(0 15.238)"/></g><path d="M2.381,20a2.381,2.381,0,0,1,0-4.762H23.619a2.381,2.381,0,1,1,0,4.762Zm0-7.619a2.381,2.381,0,0,1,0-4.761H23.619a2.381,2.381,0,1,1,0,4.761Zm0-7.619A2.381,2.381,0,0,1,2.381,0H23.619a2.381,2.381,0,1,1,0,4.762Z" transform="translate(0 0)"/></svg>