<svg xmlns="http://www.w3.org/2000/svg" viewBox="0 0 43.752 43.198"><g transform="translate(0 .5)" stroke="#fff" fill="none"><rect width="43.253" height="42.198" rx="6" stroke="none"/><rect x=".5" y=".5" width="42.253" height="41.198" rx="5.5"/></g><path d="M19.624 22.249c1.465 2.459 3.264 4.91 4.393 4.241 1.617-.958 2.7-1.875 4.957 1.121s-.31 3.961-1.876 4.889c-1.807 1.07-6.829-1.652-10.787-8.289s-3.955-12.336-2.147-13.407c1.567-.928 3.644-2.716 5.2.695s.237 3.918-1.38 4.875c-1.126.67.174 3.416 1.64 5.875z" fill="#00b0ee"/><path d="M7.055 42.701a6 6 0 0 1-6-6v-30.2a6 6 0 0 1 6-6h30.2a6 6 0 0 1 6 6v30.2a6 6 0 0 1-6 6z" stroke="#00b0ee" fill="none"/></svg>